solid AssimpScene
 facet normal 0 1 0
  outer loop
  vertex -17 -15 0
  vertex -17 -15 10.001
  vertex -6.999 -15 10.001
  endloop
 endfacet

 facet normal 0 1 0
  outer loop
  vertex -17 -15 0
  vertex -6.999 -15 10.001
  vertex -6.999 -15 0
  endloop
 endfacet

 facet normal 0 -1 0
  outer loop
  vertex -17 -25 10.001
  vertex -17 -25 0
  vertex -6.999 -25 0
  endloop
 endfacet

 facet normal 0 -1 0
  outer loop
  vertex -17 -25 10.001
  vertex -6.999 -25 0
  vertex -6.999 -25 10.001
  endloop
 endfacet

 facet normal 0 0 -1
  outer loop
  vertex -6.999 -15 0
  vertex -6.999 -25 0
  vertex -17 -25 0
  endloop
 endfacet

 facet normal 0 0 -1
  outer loop
  vertex -6.999 -15 0
  vertex -17 -25 0
  vertex -17 -15 0
  endloop
 endfacet

 facet normal 1 0 0
  outer loop
  vertex -6.999 -15 10.001
  vertex -6.999 -25 10.001
  vertex -6.999 -25 0
  endloop
 endfacet

 facet normal 1 0 0
  outer loop
  vertex -6.999 -15 10.001
  vertex -6.999 -25 0
  vertex -6.999 -15 0
  endloop
 endfacet

 facet normal -1 0 0
  outer loop
  vertex -17 -15 10.001
  vertex -17 -15 0
  vertex -17 -25 0
  endloop
 endfacet

 facet normal -1 0 0
  outer loop
  vertex -17 -15 10.001
  vertex -17 -25 0
  vertex -17 -25 10.001
  endloop
 endfacet

 facet normal 0 0 1
  outer loop
  vertex -17 -15 10.001
  vertex -17 -25 10.001
  vertex -6.999 -25 10.001
  endloop
 endfacet

 facet normal 0 0 1
  outer loop
  vertex -17 -15 10.001
  vertex -6.999 -25 10.001
  vertex -6.999 -15 10.001
  endloop
 endfacet

endsolid AssimpScene
